<?xml version="1.0" encoding="UTF-8"?><svg id="Layer_1" xmlns="http://www.w3.org/2000/svg" viewBox="0 0 67.65 19.76"><defs><style>.cls-1{fill:#fff;}</style></defs><path class="cls-1" d="M28.92,13.21s-.83.62-2.2.62h-6.94v-2.61h3.36c1.36,0,2.19.61,2.19.61v-4.06s-.83.61-2.19.62h-3.35v-2.62h6.94c1.36,0,2.2.61,2.2.61v-2.49l-.85-.96h-12.48s.61.83.61,2.2v9.35c0,1.36-.61,2.2-.61,2.2h14.96l-1.63-1.41v-2.04Z"/><path class="cls-1" d="M13.63,6.79c0-2.11-.77-3.76-3.58-3.87H.3s.61.83.62,2.19v9.37c0,1.36-.62,2.19-.62,2.19h9.75c2.82-.1,3.58-1.76,3.58-3.87,0-1.23-.67-2.68-3.03-2.96v-.09c2.36-.28,3.03-1.73,3.03-2.96ZM10.05,13.82h-5.55v-2.61h5.55v2.61ZM10.05,8.37h-5.55v-2.61h5.55v2.61Z"/><polygon class="cls-1" points="27.66 1.54 23.48 1.31 0 0 0 1.54 23.84 1.54 27.66 1.54"/><path class="cls-1" d="M38.72,16.66h12.72v-3.45s-.83.61-2.19.61h-7.27l6.03-4.43c2.53-1.85,3.43-2.3,3.43-4.5v-1.98h-11.75l-.97,1.1v2.35s.83-.61,2.2-.61h7.28l-6.05,4.43c-2.53,1.85-3.43,2.3-3.43,4.5v.65l-1.52,1.32h1.52Z"/><polygon class="cls-1" points="29.04 2.02 29.67 3.17 30.03 3.82 30.03 4.59 30.03 5.55 30.03 15.12 31.3 15.38 32.57 17.94 32.99 17.94 32.99 4.5 29.45 2.27 29.04 2.02"/><polygon class="cls-1" points="37.62 5.55 37.62 4.9 37.62 3.82 38.6 2.05 38.61 2.02 38.6 2.02 34.67 4.5 34.67 17.94 35.08 17.94 36.36 15.38 37.62 15.12 37.62 5.55"/><polygon class="cls-1" points="33.83 .97 29.29 .34 33.83 4 38.37 .34 33.83 .97"/><polygon class="cls-1" points="0 19.76 30.55 18.22 0 18.22 0 19.76"/><polygon class="cls-1" points="67.65 19.76 67.65 18.22 36.64 18.22 67.65 19.76"/><polygon class="cls-1" points="44.17 1.31 39.99 1.54 43.81 1.54 67.65 1.54 67.65 0 44.17 1.31"/><path class="cls-1" d="M63.15,2.92h-5.55c-2.82.1-3.58,1.76-3.59,3.87v7.69c0,1.35-.61,2.18-.61,2.18h4.81s-.62-.83-.62-2.2v-3.25h5.55v3.25c0,1.36-.61,2.2-.61,2.2h4.81s-.61-.83-.61-2.2v-7.67c0-2.11-.77-3.76-3.59-3.87ZM63.15,6.79v1.58h-5.55v-2.61h5.55v1.03Z"/></svg>